<?xml version="1.0" encoding="UTF-8" standalone="no"?>
<svg
   xmlns:dc="http://purl.org/dc/elements/1.1/"
   xmlns:cc="http://web.resource.org/cc/"
   xmlns:rdf="http://www.w3.org/1999/02/22-rdf-syntax-ns#"
   xmlns:svg="http://www.w3.org/2000/svg"
   xmlns="http://www.w3.org/2000/svg"
   xmlns:sodipodi="http://inkscape.sourceforge.net/DTD/sodipodi-0.dtd"
   xmlns:inkscape="http://www.inkscape.org/namespaces/inkscape"
   width="1456"
   height="570"
   viewBox="7 17 27 11"
   id="svg2"
   sodipodi:version="0.32"
   inkscape:version="0.43"
   sodipodi:docname="ami.svg"
   sodipodi:docbase="Y:\wiki"
   version="1.0">
  <metadata
     id="metadata221">
    <rdf:RDF>
      <cc:Work
         rdf:about="">
        <dc:format>image/svg+xml</dc:format>
        <dc:type
           rdf:resource="http://purl.org/dc/dcmitype/StillImage" />
      </cc:Work>
    </rdf:RDF>
  </metadata>
  <defs
     id="defs219" />
  <sodipodi:namedview
     inkscape:window-height="792"
     inkscape:window-width="1152"
     inkscape:pageshadow="2"
     inkscape:pageopacity="0.0"
     borderopacity="1.0"
     bordercolor="#666666"
     pagecolor="#ffffff"
     id="base"
     showguides="true"
     inkscape:guide-bbox="true"
     inkscape:zoom="0.49151195"
     inkscape:cx="722.85475"
     inkscape:cy="109.55997"
     inkscape:window-x="-4"
     inkscape:window-y="-4"
     inkscape:current-layer="svg2" />
  <rect
     style="fill:#ffffff;fill-opacity:1;stroke:none;stroke-width:4;stroke-linecap:square;stroke-miterlimit:4;stroke-dasharray:none;stroke-opacity:1"
     id="rect8077"
     width="28.098246"
     height="11"
     x="6.4508772"
     y="17" />
  <g
     id="g6899"
     transform="matrix(0.896771,0,0,0.896901,3.04339,1.871212)">
    <line
       id="line4"
       y2="24"
       x2="34"
       y1="24"
       x1="8"
       style="fill:none;fill-opacity:0;stroke:#c0c0c0;stroke-width:0.11288889;stroke-miterlimit:4;stroke-dasharray:none" />
    <line
       id="line6"
       y2="20"
       x2="34"
       y1="20"
       x1="8"
       style="fill:none;fill-opacity:0;stroke:#c0c0c0;stroke-width:0.11288889;stroke-miterlimit:4;stroke-dasharray:none" />
    <line
       id="line8"
       y2="27"
       x2="34"
       y1="27"
       x1="8"
       style="fill:none;fill-opacity:0;stroke:#c0c0c0;stroke-width:0.11288889;stroke-miterlimit:4;stroke-dasharray:none" />
  </g>
  <g
     id="g7819"
     transform="matrix(0.896771,0,0,0.896901,3.04339,1.871212)">
    <line
       id="line10"
       y2="28"
       x2="12"
       y1="18"
       x1="12"
       style="fill:none;fill-opacity:0;stroke:#c0c0c0;stroke-width:0.11288889;stroke-miterlimit:4;stroke-dasharray:none" />
    <line
       id="line12"
       y2="28"
       x2="14"
       y1="18"
       x1="14"
       style="fill:none;fill-opacity:0;stroke:#c0c0c0;stroke-width:0.11288889;stroke-miterlimit:4;stroke-dasharray:none" />
    <line
       id="line14"
       y2="28"
       x2="16"
       y1="20"
       x1="16"
       style="fill:none;fill-opacity:0;stroke:#c0c0c0;stroke-width:0.11288889;stroke-miterlimit:4;stroke-dasharray:none" />
    <line
       id="line16"
       y2="28"
       x2="18"
       y1="18"
       x1="18"
       style="fill:none;fill-opacity:0;stroke:#c0c0c0;stroke-width:0.11288889;stroke-miterlimit:4;stroke-dasharray:none" />
    <line
       id="line18"
       y2="28"
       x2="20"
       y1="18"
       x1="20"
       style="fill:none;fill-opacity:0;stroke:#c0c0c0;stroke-width:0.11288889;stroke-miterlimit:4;stroke-dasharray:none" />
    <line
       id="line20"
       y2="28"
       x2="22"
       y1="18"
       x1="22"
       style="fill:none;fill-opacity:0;stroke:#c0c0c0;stroke-width:0.11288889;stroke-miterlimit:4;stroke-dasharray:none" />
    <line
       id="line22"
       y2="28"
       x2="24"
       y1="20"
       x1="24"
       style="fill:none;fill-opacity:0;stroke:#c0c0c0;stroke-width:0.11288889;stroke-miterlimit:4;stroke-dasharray:none" />
    <line
       id="line24"
       y2="28"
       x2="26"
       y1="20"
       x1="26"
       style="fill:none;fill-opacity:0;stroke:#c0c0c0;stroke-width:0.11288889;stroke-miterlimit:4;stroke-dasharray:none" />
    <line
       id="line26"
       y2="28"
       x2="28"
       y1="20"
       x1="28"
       style="fill:none;fill-opacity:0;stroke:#c0c0c0;stroke-width:0.11288889;stroke-miterlimit:4;stroke-dasharray:none" />
    <line
       id="line28"
       y2="28"
       x2="30"
       y1="20"
       x1="30"
       style="fill:none;fill-opacity:0;stroke:#c0c0c0;stroke-width:0.11288889;stroke-miterlimit:4;stroke-dasharray:none" />
  </g>
  <g
     id="g8016"
     transform="matrix(0.683481,0,0,0.683581,4.737669,7.856237)">
    <line
       id="line30"
       y2="17.485878"
       x2="10.641744"
       y1="17.485878"
       x1="9.3296804"
       style="fill:none;fill-opacity:0;stroke:#ff0000;stroke-width:0.14811744;stroke-linecap:square;stroke-miterlimit:4;stroke-dasharray:none" />
    <line
       id="line32"
       y2="14.86175"
       x2="10.641744"
       y1="17.485878"
       x1="10.641744"
       style="fill:none;fill-opacity:0;stroke:#ff0000;stroke-width:0.14811744;stroke-linecap:square;stroke-miterlimit:4;stroke-dasharray:none" />
    <line
       id="line34"
       y2="14.86175"
       x2="11.953808"
       y1="14.86175"
       x1="10.641744"
       style="fill:none;fill-opacity:0;stroke:#ff0000;stroke-width:0.14811744;stroke-linecap:square;stroke-miterlimit:4;stroke-dasharray:none" />
    <line
       id="line36"
       y2="17.485878"
       x2="11.953808"
       y1="14.86175"
       x1="11.953808"
       style="fill:none;fill-opacity:0;stroke:#ff0000;stroke-width:0.14811744;stroke-linecap:square;stroke-miterlimit:4;stroke-dasharray:none" />
    <line
       id="line38"
       y2="17.485878"
       x2="13.265872"
       y1="17.485878"
       x1="11.953808"
       style="fill:none;fill-opacity:0;stroke:#ff0000;stroke-width:0.14811744;stroke-linecap:square;stroke-miterlimit:4;stroke-dasharray:none" />
    <line
       id="line40"
       y2="14.86175"
       x2="13.265872"
       y1="17.485878"
       x1="13.265872"
       style="fill:none;fill-opacity:0;stroke:#ff0000;stroke-width:0.14811744;stroke-linecap:square;stroke-miterlimit:4;stroke-dasharray:none" />
    <line
       id="line42"
       y2="14.86175"
       x2="14.577936"
       y1="14.86175"
       x1="13.265872"
       style="fill:none;fill-opacity:0;stroke:#ff0000;stroke-width:0.14811744;stroke-linecap:square;stroke-miterlimit:4;stroke-dasharray:none" />
    <line
       id="line44"
       y2="17.485878"
       x2="14.577936"
       y1="14.86175"
       x1="14.577936"
       style="fill:none;fill-opacity:0;stroke:#ff0000;stroke-width:0.14811744;stroke-linecap:square;stroke-miterlimit:4;stroke-dasharray:none" />
    <line
       id="line46"
       y2="17.485878"
       x2="15.89"
       y1="17.485878"
       x1="14.577936"
       style="fill:none;fill-opacity:0;stroke:#ff0000;stroke-width:0.14811744;stroke-linecap:square;stroke-miterlimit:4;stroke-dasharray:none" />
    <line
       id="line48"
       y2="14.86175"
       x2="15.89"
       y1="17.485878"
       x1="15.89"
       style="fill:none;fill-opacity:0;stroke:#ff0000;stroke-width:0.14811744;stroke-linecap:square;stroke-miterlimit:4;stroke-dasharray:none" />
    <line
       id="line50"
       y2="14.86175"
       x2="17.202065"
       y1="14.86175"
       x1="15.89"
       style="fill:none;fill-opacity:0;stroke:#ff0000;stroke-width:0.14811744;stroke-linecap:square;stroke-miterlimit:4;stroke-dasharray:none" />
    <line
       id="line52"
       y2="17.485878"
       x2="17.202065"
       y1="14.86175"
       x1="17.202065"
       style="fill:none;fill-opacity:0;stroke:#ff0000;stroke-width:0.14811744;stroke-linecap:square;stroke-miterlimit:4;stroke-dasharray:none" />
    <line
       id="line54"
       y2="17.485878"
       x2="18.514128"
       y1="17.485878"
       x1="17.202065"
       style="fill:none;fill-opacity:0;stroke:#ff0000;stroke-width:0.14811744;stroke-linecap:square;stroke-miterlimit:4;stroke-dasharray:none" />
    <line
       id="line56"
       y2="14.86175"
       x2="18.514128"
       y1="17.485878"
       x1="18.514128"
       style="fill:none;fill-opacity:0;stroke:#ff0000;stroke-width:0.14811744;stroke-linecap:square;stroke-miterlimit:4;stroke-dasharray:none" />
    <line
       id="line58"
       y2="14.86175"
       x2="19.826193"
       y1="14.86175"
       x1="18.514128"
       style="fill:none;fill-opacity:0;stroke:#ff0000;stroke-width:0.14811744;stroke-linecap:square;stroke-miterlimit:4;stroke-dasharray:none" />
    <line
       id="line60"
       y2="17.485878"
       x2="19.826193"
       y1="14.86175"
       x1="19.826193"
       style="fill:none;fill-opacity:0;stroke:#ff0000;stroke-width:0.14811744;stroke-linecap:square;stroke-miterlimit:4;stroke-dasharray:none" />
    <line
       id="line62"
       y2="17.485878"
       x2="21.138256"
       y1="17.485878"
       x1="19.826193"
       style="fill:none;fill-opacity:0;stroke:#ff0000;stroke-width:0.14811744;stroke-linecap:square;stroke-miterlimit:4;stroke-dasharray:none" />
    <line
       id="line64"
       y2="14.86175"
       x2="21.138256"
       y1="17.485878"
       x1="21.138256"
       style="fill:none;fill-opacity:0;stroke:#ff0000;stroke-width:0.14811744;stroke-linecap:square;stroke-miterlimit:4;stroke-dasharray:none" />
    <line
       id="line66"
       y2="14.86175"
       x2="22.450319"
       y1="14.86175"
       x1="21.138256"
       style="fill:none;fill-opacity:0;stroke:#ff0000;stroke-width:0.14811744;stroke-linecap:square;stroke-miterlimit:4;stroke-dasharray:none" />
    <line
       id="line68"
       y2="17.485878"
       x2="22.450319"
       y1="14.86175"
       x1="22.450319"
       style="fill:none;fill-opacity:0;stroke:#ff0000;stroke-width:0.14811744;stroke-linecap:square;stroke-miterlimit:4;stroke-dasharray:none" />
    <line
       id="line70"
       y2="17.485878"
       x2="23.762384"
       y1="17.485878"
       x1="22.450319"
       style="fill:none;fill-opacity:0;stroke:#ff0000;stroke-width:0.14811744;stroke-linecap:square;stroke-miterlimit:4;stroke-dasharray:none" />
    <line
       id="line72"
       y2="14.86175"
       x2="23.762384"
       y1="17.485878"
       x1="23.762384"
       style="fill:none;fill-opacity:0;stroke:#ff0000;stroke-width:0.14811744;stroke-linecap:square;stroke-miterlimit:4;stroke-dasharray:none" />
    <line
       id="line74"
       y2="14.86175"
       x2="25.074448"
       y1="14.86175"
       x1="23.762384"
       style="fill:none;fill-opacity:0;stroke:#ff0000;stroke-width:0.14811744;stroke-linecap:square;stroke-miterlimit:4;stroke-dasharray:none" />
    <line
       id="line76"
       y2="17.485878"
       x2="25.074448"
       y1="14.86175"
       x1="25.074448"
       style="fill:none;fill-opacity:0;stroke:#ff0000;stroke-width:0.14811744;stroke-linecap:square;stroke-miterlimit:4;stroke-dasharray:none" />
    <line
       id="line78"
       y2="17.485878"
       x2="26.386513"
       y1="17.485878"
       x1="25.074448"
       style="fill:none;fill-opacity:0;stroke:#ff0000;stroke-width:0.14811744;stroke-linecap:square;stroke-miterlimit:4;stroke-dasharray:none" />
    <line
       id="line80"
       y2="14.86175"
       x2="26.386513"
       y1="17.485878"
       x1="26.386513"
       style="fill:none;fill-opacity:0;stroke:#ff0000;stroke-width:0.14811744;stroke-linecap:square;stroke-miterlimit:4;stroke-dasharray:none" />
    <line
       id="line82"
       y2="14.86175"
       x2="27.698576"
       y1="14.86175"
       x1="26.386513"
       style="fill:none;fill-opacity:0;stroke:#ff0000;stroke-width:0.14811744;stroke-linecap:square;stroke-miterlimit:4;stroke-dasharray:none" />
    <line
       id="line84"
       y2="17.485878"
       x2="27.698576"
       y1="14.86175"
       x1="27.698576"
       style="fill:none;fill-opacity:0;stroke:#ff0000;stroke-width:0.14811744;stroke-linecap:square;stroke-miterlimit:4;stroke-dasharray:none" />
    <line
       id="line86"
       y2="17.485878"
       x2="29.010639"
       y1="17.485878"
       x1="27.698576"
       style="fill:none;fill-opacity:0;stroke:#ff0000;stroke-width:0.14811744;stroke-linecap:square;stroke-miterlimit:4;stroke-dasharray:none" />
    <line
       id="line88"
       y2="14.86175"
       x2="29.010639"
       y1="17.485878"
       x1="29.010639"
       style="fill:none;fill-opacity:0;stroke:#ff0000;stroke-width:0.14811744;stroke-linecap:square;stroke-miterlimit:4;stroke-dasharray:none" />
    <line
       id="line90"
       y2="14.86175"
       x2="30.322704"
       y1="14.86175"
       x1="29.010639"
       style="fill:none;fill-opacity:0;stroke:#ff0000;stroke-width:0.14811744;stroke-linecap:square;stroke-miterlimit:4;stroke-dasharray:none" />
    <line
       id="line92"
       y2="17.485878"
       x2="30.322704"
       y1="14.86175"
       x1="30.322704"
       style="fill:none;fill-opacity:0;stroke:#ff0000;stroke-width:0.14811744;stroke-linecap:square;stroke-miterlimit:4;stroke-dasharray:none" />
    <line
       id="line94"
       y2="17.485878"
       x2="31.634768"
       y1="17.485878"
       x1="30.322704"
       style="fill:none;fill-opacity:0;stroke:#ff0000;stroke-width:0.14811744;stroke-linecap:square;stroke-miterlimit:4;stroke-dasharray:none" />
    <line
       id="line96"
       y2="14.86175"
       x2="31.634768"
       y1="17.485878"
       x1="31.634768"
       style="fill:none;fill-opacity:0;stroke:#ff0000;stroke-width:0.14811744;stroke-linecap:square;stroke-miterlimit:4;stroke-dasharray:none" />
    <line
       id="line98"
       y2="14.86175"
       x2="32.946831"
       y1="14.86175"
       x1="31.634768"
       style="fill:none;fill-opacity:0;stroke:#ff0000;stroke-width:0.14811744;stroke-linecap:square;stroke-miterlimit:4;stroke-dasharray:none" />
    <line
       id="line100"
       y2="17.485878"
       x2="32.946831"
       y1="14.86175"
       x1="32.946831"
       style="fill:none;fill-opacity:0;stroke:#ff0000;stroke-width:0.14811744;stroke-linecap:square;stroke-miterlimit:4;stroke-dasharray:none" />
    <line
       id="line102"
       y2="17.485878"
       x2="34.258896"
       y1="17.485878"
       x1="32.946831"
       style="fill:none;fill-opacity:0;stroke:#ff0000;stroke-width:0.14811744;stroke-linecap:square;stroke-miterlimit:4;stroke-dasharray:none" />
    <line
       id="line104"
       y2="14.86175"
       x2="34.258896"
       y1="17.485878"
       x1="34.258896"
       style="fill:none;fill-opacity:0;stroke:#ff0000;stroke-width:0.14811744;stroke-linecap:square;stroke-miterlimit:4;stroke-dasharray:none" />
    <line
       id="line106"
       y2="14.86175"
       x2="35.570961"
       y1="14.86175"
       x1="34.258896"
       style="fill:none;fill-opacity:0;stroke:#ff0000;stroke-width:0.14811744;stroke-linecap:square;stroke-miterlimit:4;stroke-dasharray:none" />
    <line
       id="line108"
       y2="17.485878"
       x2="35.570961"
       y1="14.86175"
       x1="35.570961"
       style="fill:none;fill-opacity:0;stroke:#ff0000;stroke-width:0.14811744;stroke-linecap:square;stroke-miterlimit:4;stroke-dasharray:none" />
    <line
       id="line110"
       y2="17.485878"
       x2="36.883022"
       y1="17.485878"
       x1="35.570961"
       style="fill:none;fill-opacity:0;stroke:#ff0000;stroke-width:0.14811744;stroke-linecap:square;stroke-miterlimit:4;stroke-dasharray:none" />
    <line
       id="line112"
       y2="14.86175"
       x2="36.883022"
       y1="17.485878"
       x1="36.883022"
       style="fill:none;fill-opacity:0;stroke:#ff0000;stroke-width:0.14811744;stroke-linecap:square;stroke-miterlimit:4;stroke-dasharray:none" />
    <line
       id="line114"
       y2="14.86175"
       x2="38.195087"
       y1="14.86175"
       x1="36.883022"
       style="fill:none;fill-opacity:0;stroke:#ff0000;stroke-width:0.14811744;stroke-linecap:square;stroke-miterlimit:4;stroke-dasharray:none" />
    <line
       id="line116"
       y2="17.485878"
       x2="38.195087"
       y1="14.86175"
       x1="38.195087"
       style="fill:none;fill-opacity:0;stroke:#ff0000;stroke-width:0.14811744;stroke-linecap:square;stroke-miterlimit:4;stroke-dasharray:none" />
    <line
       id="line118"
       y2="17.485878"
       x2="40.819218"
       y1="17.485878"
       x1="38.195087"
       style="fill:none;fill-opacity:0;stroke:#ff0000;stroke-width:0.14811744;stroke-linecap:square;stroke-miterlimit:4;stroke-dasharray:none" />
  </g>
  <g
     id="g7997"
     transform="matrix(0.683481,0,0,0.683581,4.737669,7.856237)">
    <line
       id="line120"
       y2="22.734135"
       x2="10.641744"
       y1="22.734135"
       x1="9.3296804"
       style="fill:none;fill-opacity:0;stroke:#ff0000;stroke-width:0.14811744;stroke-linecap:square;stroke-miterlimit:4;stroke-dasharray:none" />
    <line
       id="line122"
       y2="20.110006"
       x2="10.641744"
       y1="22.734135"
       x1="10.641744"
       style="fill:none;fill-opacity:0;stroke:#ff0000;stroke-width:0.14811744;stroke-linecap:square;stroke-miterlimit:4;stroke-dasharray:none" />
    <line
       id="line124"
       y2="20.110006"
       x2="13.265872"
       y1="20.110006"
       x1="10.641744"
       style="fill:none;fill-opacity:0;stroke:#ff0000;stroke-width:0.14811744;stroke-linecap:square;stroke-miterlimit:4;stroke-dasharray:none" />
    <line
       id="line126"
       y2="22.734135"
       x2="13.265872"
       y1="20.110006"
       x1="13.265872"
       style="fill:none;fill-opacity:0;stroke:#ff0000;stroke-width:0.14811744;stroke-linecap:square;stroke-miterlimit:4;stroke-dasharray:none" />
    <line
       id="line128"
       y2="20.110006"
       x2="18.514128"
       y1="22.734135"
       x1="18.514128"
       style="fill:none;fill-opacity:0;stroke:#ff0000;stroke-width:0.14811744;stroke-linecap:square;stroke-miterlimit:4;stroke-dasharray:none" />
    <line
       id="line130"
       y2="22.734135"
       x2="31.634768"
       y1="20.110006"
       x1="31.634768"
       style="fill:none;fill-opacity:0;stroke:#ff0000;stroke-width:0.14811744;stroke-linecap:square;stroke-miterlimit:4;stroke-dasharray:none" />
    <line
       id="line132"
       y2="22.734135"
       x2="36.883022"
       y1="22.734135"
       x1="31.634768"
       style="fill:none;fill-opacity:0;stroke:#ff0000;stroke-width:0.14811744;stroke-linecap:square;stroke-miterlimit:4;stroke-dasharray:none" />
    <line
       id="line162"
       y2="22.734135"
       x2="15.89"
       y1="20.110006"
       x1="15.89"
       style="fill:none;fill-opacity:0;stroke:#ff0000;stroke-width:0.14811744;stroke-linecap:square;stroke-miterlimit:4;stroke-dasharray:none" />
    <line
       id="line164"
       y2="20.110006"
       x2="18.514128"
       y1="20.110006"
       x1="15.89"
       style="fill:none;fill-opacity:0;stroke:#ff0000;stroke-width:0.14811744;stroke-linecap:square;stroke-miterlimit:4;stroke-dasharray:none" />
    <line
       id="line166"
       y2="22.734135"
       x2="23.762384"
       y1="22.734135"
       x1="18.514128"
       style="fill:none;fill-opacity:0;stroke:#ff0000;stroke-width:0.14811744;stroke-linecap:square;stroke-miterlimit:4;stroke-dasharray:none" />
    <line
       id="line168"
       y2="20.110006"
       x2="23.762384"
       y1="22.734135"
       x1="23.762384"
       style="fill:none;fill-opacity:0;stroke:#ff0000;stroke-width:0.14811744;stroke-linecap:square;stroke-miterlimit:4;stroke-dasharray:none" />
    <line
       id="line170"
       y2="20.110006"
       x2="31.634768"
       y1="20.110006"
       x1="23.762384"
       style="fill:none;fill-opacity:0;stroke:#ff0000;stroke-width:0.14811744;stroke-linecap:square;stroke-miterlimit:4;stroke-dasharray:none" />
    <line
       id="line172"
       y2="20.110006"
       x2="36.883022"
       y1="22.734135"
       x1="36.883022"
       style="fill:none;fill-opacity:0;stroke:#ff0000;stroke-width:0.14811744;stroke-linecap:square;stroke-miterlimit:4;stroke-dasharray:none" />
    <line
       id="line174"
       y2="20.110006"
       x2="39.507153"
       y1="20.110006"
       x1="36.883022"
       style="fill:none;fill-opacity:0;stroke:#ff0000;stroke-width:0.14811744;stroke-linecap:square;stroke-miterlimit:4;stroke-dasharray:none" />
    <line
       id="line176"
       y2="22.734135"
       x2="39.507153"
       y1="20.110006"
       x1="39.507153"
       style="fill:none;fill-opacity:0;stroke:#ff0000;stroke-width:0.14811744;stroke-linecap:square;stroke-miterlimit:4;stroke-dasharray:none" />
    <line
       id="line178"
       y2="22.734135"
       x2="40.819218"
       y1="22.734135"
       x1="39.507153"
       style="fill:none;fill-opacity:0;stroke:#ff0000;stroke-width:0.14811744;stroke-linecap:square;stroke-miterlimit:4;stroke-dasharray:none" />
    <line
       id="line160"
       y2="22.734135"
       x2="15.89"
       y1="22.734135"
       x1="13.265872"
       style="fill:none;fill-opacity:0;stroke:#ff0000;stroke-width:0.14811744;stroke-linecap:square;stroke-miterlimit:4;stroke-dasharray:none" />
  </g>
  <g
     id="g7974"
     transform="matrix(0.683481,0,0,0.683581,4.737669,7.856237)">
    <line
       id="line134"
       y2="26.670326"
       x2="10.641744"
       y1="26.670326"
       x1="9.3296804"
       style="fill:none;fill-opacity:0;stroke:#ff0000;stroke-width:0.14811744;stroke-linecap:square;stroke-miterlimit:4;stroke-dasharray:none" />
    <line
       id="line136"
       y2="26.670326"
       x2="40.819218"
       y1="26.670326"
       x1="39.507153"
       style="fill:none;fill-opacity:0;stroke:#ff0000;stroke-width:0.14811744;stroke-linecap:square;stroke-miterlimit:4;stroke-dasharray:none" />
    <line
       id="line180"
       y2="26.670326"
       x2="10.641744"
       y1="25.358261"
       x1="10.641744"
       style="fill:none;fill-opacity:0;stroke:#ff0000;stroke-width:0.14811744;stroke-linecap:square;stroke-miterlimit:4;stroke-dasharray:none" />
    <line
       id="line182"
       y2="25.358261"
       x2="13.265872"
       y1="25.358261"
       x1="10.641744"
       style="fill:none;fill-opacity:0;stroke:#ff0000;stroke-width:0.14811744;stroke-linecap:square;stroke-miterlimit:4;stroke-dasharray:none" />
    <line
       id="line184"
       y2="26.670326"
       x2="13.265872"
       y1="25.358261"
       x1="13.265872"
       style="fill:none;fill-opacity:0;stroke:#ff0000;stroke-width:0.14811744;stroke-linecap:square;stroke-miterlimit:4;stroke-dasharray:none" />
    <line
       id="line186"
       y2="26.670326"
       x2="15.89"
       y1="26.670326"
       x1="13.265872"
       style="fill:none;fill-opacity:0;stroke:#ff0000;stroke-width:0.14811744;stroke-linecap:square;stroke-miterlimit:4;stroke-dasharray:none" />
    <line
       id="line188"
       y2="27.982389"
       x2="15.89"
       y1="26.670326"
       x1="15.89"
       style="fill:none;fill-opacity:0;stroke:#ff0000;stroke-width:0.14811744;stroke-linecap:square;stroke-miterlimit:4;stroke-dasharray:none" />
    <line
       id="line190"
       y2="27.982389"
       x2="18.514128"
       y1="27.982389"
       x1="15.89"
       style="fill:none;fill-opacity:0;stroke:#ff0000;stroke-width:0.14811744;stroke-linecap:square;stroke-miterlimit:4;stroke-dasharray:none" />
    <line
       id="line192"
       y2="26.670326"
       x2="18.514128"
       y1="27.982389"
       x1="18.514128"
       style="fill:none;fill-opacity:0;stroke:#ff0000;stroke-width:0.14811744;stroke-linecap:square;stroke-miterlimit:4;stroke-dasharray:none" />
    <line
       id="line194"
       y2="26.670326"
       x2="23.762384"
       y1="26.670326"
       x1="18.514128"
       style="fill:none;fill-opacity:0;stroke:#ff0000;stroke-width:0.14811744;stroke-linecap:square;stroke-miterlimit:4;stroke-dasharray:none" />
    <line
       id="line196"
       y2="25.358261"
       x2="23.762384"
       y1="26.670326"
       x1="23.762384"
       style="fill:none;fill-opacity:0;stroke:#ff0000;stroke-width:0.14811744;stroke-linecap:square;stroke-miterlimit:4;stroke-dasharray:none" />
    <line
       id="line198"
       y2="25.358261"
       x2="26.386513"
       y1="25.358261"
       x1="23.762384"
       style="fill:none;fill-opacity:0;stroke:#ff0000;stroke-width:0.14811744;stroke-linecap:square;stroke-miterlimit:4;stroke-dasharray:none" />
    <line
       id="line200"
       y2="27.982389"
       x2="26.386513"
       y1="25.358261"
       x1="26.386513"
       style="fill:none;fill-opacity:0;stroke:#ff0000;stroke-width:0.14811744;stroke-linecap:square;stroke-miterlimit:4;stroke-dasharray:none" />
    <line
       id="line202"
       y2="27.982389"
       x2="29.010639"
       y1="27.982389"
       x1="26.386513"
       style="fill:none;fill-opacity:0;stroke:#ff0000;stroke-width:0.14811744;stroke-linecap:square;stroke-miterlimit:4;stroke-dasharray:none" />
    <line
       id="line204"
       y2="25.358261"
       x2="29.010639"
       y1="27.982389"
       x1="29.010639"
       style="fill:none;fill-opacity:0;stroke:#ff0000;stroke-width:0.14811744;stroke-linecap:square;stroke-miterlimit:4;stroke-dasharray:none" />
    <line
       id="line206"
       y2="25.358261"
       x2="31.634768"
       y1="25.358261"
       x1="29.010639"
       style="fill:none;fill-opacity:0;stroke:#ff0000;stroke-width:0.14811744;stroke-linecap:square;stroke-miterlimit:4;stroke-dasharray:none" />
    <line
       id="line208"
       y2="26.670326"
       x2="31.634768"
       y1="25.358261"
       x1="31.634768"
       style="fill:none;fill-opacity:0;stroke:#ff0000;stroke-width:0.14811744;stroke-linecap:square;stroke-miterlimit:4;stroke-dasharray:none" />
    <line
       id="line210"
       y2="26.670326"
       x2="36.883022"
       y1="26.670326"
       x1="31.634768"
       style="fill:none;fill-opacity:0;stroke:#ff0000;stroke-width:0.14811744;stroke-linecap:square;stroke-miterlimit:4;stroke-dasharray:none" />
    <line
       id="line212"
       y2="27.982389"
       x2="36.883022"
       y1="26.670326"
       x1="36.883022"
       style="fill:none;fill-opacity:0;stroke:#ff0000;stroke-width:0.14811744;stroke-linecap:square;stroke-miterlimit:4;stroke-dasharray:none" />
    <line
       id="line214"
       y2="27.982389"
       x2="39.507153"
       y1="27.982389"
       x1="36.883022"
       style="fill:none;fill-opacity:0;stroke:#ff0000;stroke-width:0.14811744;stroke-linecap:square;stroke-miterlimit:4;stroke-dasharray:none" />
    <line
       id="line216"
       y2="26.670326"
       x2="39.507153"
       y1="27.982389"
       x1="39.507153"
       style="fill:none;fill-opacity:0;stroke:#ff0000;stroke-width:0.14811744;stroke-linecap:square;stroke-miterlimit:4;stroke-dasharray:none" />
  </g>
  <path
     style="font-size:1.35413444px;font-style:normal;font-variant:normal;font-weight:normal;font-stretch:normal;text-align:start;line-height:125%;writing-mode:lr-tb;text-anchor:start;fill:#000000;fill-opacity:1;stroke:none;stroke-width:1px;stroke-linecap:butt;stroke-linejoin:miter;stroke-opacity:1;font-family:Bitstream Vera Sans"
     d="M 12.720025,24.554429 L 12.869216,24.554429 L 12.869216,24.039419 L 12.706914,24.071974 L 12.706914,23.988776 L 12.868312,23.956221 L 12.959635,23.956221 L 12.959635,24.554429 L 13.108826,24.554429 L 13.108826,24.631296 L 12.720025,24.631296 L 12.720025,24.554429"
     id="text1520" />
  <path
     style="font-size:1.35413444px;font-style:normal;font-variant:normal;font-weight:normal;font-stretch:normal;text-align:start;line-height:125%;writing-mode:lr-tb;text-anchor:start;fill:#000000;fill-opacity:1;stroke:none;stroke-width:1px;stroke-linecap:butt;stroke-linejoin:miter;stroke-opacity:1;font-family:Bitstream Vera Sans"
     d="M 14.701411,24.015905 C 14.654393,24.015906 14.618979,24.039118 14.595169,24.085538 C 14.57166,24.131659 14.559906,24.201141 14.559906,24.293985 C 14.559906,24.386527 14.57166,24.456008 14.595169,24.50243 C 14.618979,24.548551 14.654393,24.571611 14.701411,24.571611 C 14.74873,24.571611 14.784144,24.548551 14.807653,24.50243 C 14.831463,24.456008 14.843368,24.386527 14.843368,24.293985 C 14.843368,24.201141 14.831463,24.131659 14.807653,24.085538 C 14.784144,24.039118 14.74873,24.015906 14.701411,24.015905 M 14.701411,23.94356 C 14.777061,23.943561 14.834778,23.973554 14.874563,24.033539 C 14.914648,24.093225 14.934691,24.18004 14.934691,24.293985 C 14.934691,24.407627 14.914648,24.494442 14.874563,24.554428 C 14.834778,24.614113 14.777061,24.643956 14.701411,24.643956 C 14.62576,24.643956 14.567892,24.614113 14.527807,24.554428 C 14.488022,24.494442 14.46813,24.407627 14.468131,24.293985 C 14.46813,24.18004 14.488022,24.093225 14.527807,24.033539 C 14.567892,23.973554 14.62576,23.943561 14.701411,23.94356"
     id="text1524" />
  <path
     style="font-size:1.35413444px;font-style:normal;font-variant:normal;font-weight:normal;font-stretch:normal;text-align:start;line-height:125%;writing-mode:lr-tb;text-anchor:start;fill:#000000;fill-opacity:1;stroke:none;stroke-width:1px;stroke-linecap:butt;stroke-linejoin:miter;stroke-opacity:1;font-family:Bitstream Vera Sans"
     d="M 16.307107,24.554429 L 16.456298,24.554429 L 16.456298,24.039419 L 16.293996,24.071974 L 16.293996,23.988776 L 16.455394,23.956221 L 16.546717,23.956221 L 16.546717,24.554429 L 16.695908,24.554429 L 16.695908,24.631296 L 16.307107,24.631296 L 16.307107,24.554429"
     id="text1528" />
  <path
     style="font-size:1.35413444px;font-style:normal;font-variant:normal;font-weight:normal;font-stretch:normal;text-align:start;line-height:125%;writing-mode:lr-tb;text-anchor:start;fill:#000000;fill-opacity:1;stroke:none;stroke-width:1px;stroke-linecap:butt;stroke-linejoin:miter;stroke-opacity:1;font-family:Bitstream Vera Sans"
     d="M 21.687732,24.554429 L 21.836923,24.554429 L 21.836923,24.039419 L 21.674621,24.071974 L 21.674621,23.988776 L 21.836019,23.956221 L 21.927342,23.956221 L 21.927342,24.554429 L 22.076533,24.554429 L 22.076533,24.631296 L 21.687732,24.631296 L 21.687732,24.554429"
     id="text1532" />
  <path
     style="font-size:1.35413444px;font-style:normal;font-variant:normal;font-weight:normal;font-stretch:normal;text-align:start;line-height:125%;writing-mode:lr-tb;text-anchor:start;fill:#000000;fill-opacity:1;stroke:none;stroke-width:1px;stroke-linecap:butt;stroke-linejoin:miter;stroke-opacity:1;font-family:Bitstream Vera Sans"
     d="M 23.481273,24.554429 L 23.630464,24.554429 L 23.630464,24.039419 L 23.468163,24.071974 L 23.468163,23.988776 L 23.62956,23.956221 L 23.720883,23.956221 L 23.720883,24.554429 L 23.870074,24.554429 L 23.870074,24.631296 L 23.481273,24.631296 L 23.481273,24.554429"
     id="text1536" />
  <path
     style="font-size:1.35413444px;font-style:normal;font-variant:normal;font-weight:normal;font-stretch:normal;text-align:start;line-height:125%;writing-mode:lr-tb;text-anchor:start;fill:#000000;fill-opacity:1;stroke:none;stroke-width:1px;stroke-linecap:butt;stroke-linejoin:miter;stroke-opacity:1;font-family:Bitstream Vera Sans"
     d="M 25.274816,24.554429 L 25.424006,24.554429 L 25.424006,24.039419 L 25.261705,24.071974 L 25.261705,23.988776 L 25.423103,23.956221 L 25.514426,23.956221 L 25.514426,24.554429 L 25.663617,24.554429 L 25.663617,24.631296 L 25.274816,24.631296 L 25.274816,24.554429"
     id="text1540" />
  <path
     style="font-size:1.35413444px;font-style:normal;font-variant:normal;font-weight:normal;font-stretch:normal;text-align:start;line-height:125%;writing-mode:lr-tb;text-anchor:start;fill:#000000;fill-opacity:1;stroke:none;stroke-width:1px;stroke-linecap:butt;stroke-linejoin:miter;stroke-opacity:1;font-family:Bitstream Vera Sans"
     d="M 30.655438,24.554429 L 30.804629,24.554429 L 30.804629,24.039419 L 30.642327,24.071974 L 30.642327,23.988776 L 30.803725,23.956221 L 30.895048,23.956221 L 30.895048,24.554429 L 31.044239,24.554429 L 31.044239,24.631296 L 30.655438,24.631296 L 30.655438,24.554429"
     id="text1544" />
  <path
     style="font-size:1.35413444px;font-style:normal;font-variant:normal;font-weight:normal;font-stretch:normal;text-align:start;line-height:125%;writing-mode:lr-tb;text-anchor:start;fill:#000000;fill-opacity:1;stroke:none;stroke-width:1px;stroke-linecap:butt;stroke-linejoin:miter;stroke-opacity:1;font-family:Bitstream Vera Sans"
     d="M 18.288495,24.015905 C 18.241477,24.015906 18.206063,24.039118 18.182252,24.085538 C 18.158744,24.131659 18.146989,24.201141 18.146989,24.293985 C 18.146989,24.386527 18.158744,24.456008 18.182252,24.50243 C 18.206063,24.548551 18.241477,24.571611 18.288495,24.571611 C 18.335814,24.571611 18.371228,24.548551 18.394736,24.50243 C 18.418547,24.456008 18.430451,24.386527 18.430452,24.293985 C 18.430451,24.201141 18.418547,24.131659 18.394736,24.085538 C 18.371228,24.039118 18.335814,24.015906 18.288495,24.015905 M 18.288495,23.94356 C 18.364145,23.943561 18.421862,23.973554 18.461647,24.033539 C 18.501732,24.093225 18.521774,24.18004 18.521775,24.293985 C 18.521774,24.407627 18.501732,24.494442 18.461647,24.554428 C 18.421862,24.614113 18.364145,24.643956 18.288495,24.643956 C 18.212844,24.643956 18.154976,24.614113 18.114891,24.554428 C 18.075106,24.494442 18.055214,24.407627 18.055214,24.293985 C 18.055214,24.18004 18.075106,24.093225 18.114891,24.033539 C 18.154976,23.973554 18.212844,23.943561 18.288495,23.94356"
     id="text1548" />
  <path
     style="font-size:1.35413444px;font-style:normal;font-variant:normal;font-weight:normal;font-stretch:normal;text-align:start;line-height:125%;writing-mode:lr-tb;text-anchor:start;fill:#000000;fill-opacity:1;stroke:none;stroke-width:1px;stroke-linecap:butt;stroke-linejoin:miter;stroke-opacity:1;font-family:Bitstream Vera Sans"
     d="M 20.082036,24.015905 C 20.035018,24.015906 19.999603,24.039118 19.975794,24.085538 C 19.952285,24.131659 19.94053,24.201141 19.94053,24.293985 C 19.94053,24.386527 19.952285,24.456008 19.975794,24.50243 C 19.999603,24.548551 20.035018,24.571611 20.082036,24.571611 C 20.129354,24.571611 20.164769,24.548551 20.188278,24.50243 C 20.212087,24.456008 20.223993,24.386527 20.223994,24.293985 C 20.223993,24.201141 20.212087,24.131659 20.188278,24.085538 C 20.164769,24.039118 20.129354,24.015906 20.082036,24.015905 M 20.082036,23.94356 C 20.157686,23.943561 20.215403,23.973554 20.255188,24.033539 C 20.295273,24.093225 20.315316,24.18004 20.315317,24.293985 C 20.315316,24.407627 20.295273,24.494442 20.255188,24.554428 C 20.215403,24.614113 20.157686,24.643956 20.082036,24.643956 C 20.006385,24.643956 19.948517,24.614113 19.908432,24.554428 C 19.868647,24.494442 19.848755,24.407627 19.848755,24.293985 C 19.848755,24.18004 19.868647,24.093225 19.908432,24.033539 C 19.948517,23.973554 20.006385,23.943561 20.082036,23.94356"
     id="text1552" />
  <path
     style="font-size:1.35413444px;font-style:normal;font-variant:normal;font-weight:normal;font-stretch:normal;text-align:start;line-height:125%;writing-mode:lr-tb;text-anchor:start;fill:#000000;fill-opacity:1;stroke:none;stroke-width:1px;stroke-linecap:butt;stroke-linejoin:miter;stroke-opacity:1;font-family:Bitstream Vera Sans"
     d="M 27.256202,24.015905 C 27.209184,24.015906 27.17377,24.039118 27.149959,24.085538 C 27.126451,24.131659 27.114696,24.201141 27.114696,24.293985 C 27.114696,24.386527 27.126451,24.456008 27.149959,24.50243 C 27.17377,24.548551 27.209184,24.571611 27.256202,24.571611 C 27.303521,24.571611 27.338935,24.548551 27.362444,24.50243 C 27.386254,24.456008 27.398159,24.386527 27.398159,24.293985 C 27.398159,24.201141 27.386254,24.131659 27.362444,24.085538 C 27.338935,24.039118 27.303521,24.015906 27.256202,24.015905 M 27.256202,23.94356 C 27.331852,23.943561 27.389569,23.973554 27.429354,24.033539 C 27.469439,24.093225 27.489482,24.18004 27.489482,24.293985 C 27.489482,24.407627 27.469439,24.494442 27.429354,24.554428 C 27.389569,24.614113 27.331852,24.643956 27.256202,24.643956 C 27.180551,24.643956 27.122683,24.614113 27.082598,24.554428 C 27.042813,24.494442 27.022921,24.407627 27.022921,24.293985 C 27.022921,24.18004 27.042813,24.093225 27.082598,24.033539 C 27.122683,23.973554 27.180551,23.943561 27.256202,23.94356"
     id="text1556" />
  <path
     style="font-size:1.35413444px;font-style:normal;font-variant:normal;font-weight:normal;font-stretch:normal;text-align:start;line-height:125%;writing-mode:lr-tb;text-anchor:start;fill:#000000;fill-opacity:1;stroke:none;stroke-width:1px;stroke-linecap:butt;stroke-linejoin:miter;stroke-opacity:1;font-family:Bitstream Vera Sans"
     d="M 29.049743,24.015905 C 29.002725,24.015906 28.967311,24.039118 28.943501,24.085538 C 28.919992,24.131659 28.908237,24.201141 28.908237,24.293985 C 28.908237,24.386527 28.919992,24.456008 28.943501,24.50243 C 28.967311,24.548551 29.002725,24.571611 29.049743,24.571611 C 29.097061,24.571611 29.132476,24.548551 29.155985,24.50243 C 29.179795,24.456008 29.1917,24.386527 29.191701,24.293985 C 29.1917,24.201141 29.179795,24.131659 29.155985,24.085538 C 29.132476,24.039118 29.097061,24.015906 29.049743,24.015905 M 29.049743,23.94356 C 29.125393,23.943561 29.18311,23.973554 29.222895,24.033539 C 29.26298,24.093225 29.283023,24.18004 29.283024,24.293985 C 29.283023,24.407627 29.26298,24.494442 29.222895,24.554428 C 29.18311,24.614113 29.125393,24.643956 29.049743,24.643956 C 28.974093,24.643956 28.916224,24.614113 28.876139,24.554428 C 28.836355,24.494442 28.816462,24.407627 28.816462,24.293985 C 28.816462,24.18004 28.836355,24.093225 28.876139,24.033539 C 28.916224,23.973554 28.974093,23.943561 29.049743,23.94356"
     id="text1560" />
  <path
     style="font-size:1.35413444px;font-style:normal;font-variant:normal;font-weight:normal;font-stretch:normal;text-align:start;line-height:125%;writing-mode:lr-tb;text-anchor:start;fill:#000000;fill-opacity:1;stroke:none;stroke-width:1px;stroke-linecap:butt;stroke-linejoin:miter;stroke-opacity:1;font-family:Bitstream Vera Sans"
     d="M 7.9601111,18.634494 L 7.9601111,18.730805 C 7.929368,18.702169 7.8965159,18.680766 7.8615545,18.666598 C 7.8268935,18.652431 7.7899725,18.645346 7.7507915,18.645346 C 7.6736337,18.645346 7.6145602,18.669011 7.5735705,18.716336 C 7.5325805,18.763361 7.5120856,18.831486 7.5120857,18.920712 C 7.5120856,19.009637 7.5325805,19.077763 7.5735705,19.125088 C 7.6145602,19.172114 7.6736337,19.195626 7.7507915,19.195626 C 7.7899725,19.195626 7.8268935,19.188541 7.8615545,19.174375 C 7.8965159,19.160207 7.929368,19.138804 7.9601111,19.110167 L 7.9601111,19.205572 C 7.9281625,19.227277 7.8942555,19.243554 7.8583898,19.254406 C 7.8228246,19.265258 7.7851501,19.270684 7.7453663,19.270684 C 7.6431927,19.270684 7.56272,19.239485 7.503948,19.177086 C 7.4451757,19.114387 7.4157896,19.02893 7.4157896,18.920712 C 7.4157896,18.812194 7.4451757,18.726736 7.503948,18.664337 C 7.56272,18.601638 7.6431927,18.570288 7.7453663,18.570288 C 7.7857529,18.570288 7.8237288,18.575715 7.859294,18.586566 C 7.8951596,18.597117 7.9287653,18.613093 7.9601111,18.634494 M 8.0984519,18.554009 L 8.1816372,18.554009 L 8.1816372,19.257571 L 8.0984519,19.257571 L 8.0984519,18.554009 M 8.5514502,18.80948 C 8.5068433,18.809481 8.4715801,18.826964 8.4456602,18.861931 C 8.4197399,18.896597 8.4067799,18.944225 8.4067801,19.004813 C 8.4067799,19.065403 8.4195892,19.113182 8.4452081,19.148148 C 8.471128,19.182814 8.5065419,19.200147 8.5514502,19.200147 C 8.5957551,19.200147 8.6308677,19.182664 8.6567881,19.147696 C 8.6827078,19.112729 8.6956678,19.065102 8.6956683,19.004813 C 8.6956678,18.944827 8.6827078,18.897351 8.6567881,18.862383 C 8.6308677,18.827115 8.5957551,18.809481 8.5514502,18.80948 M 8.5514502,18.738943 C 8.6237849,18.738944 8.6805981,18.762457 8.7218897,18.80948 C 8.7631805,18.856506 8.7838261,18.921616 8.7838266,19.004813 C 8.7838261,19.087709 8.7631805,19.152821 8.7218897,19.200147 C 8.6805981,19.247171 8.6237849,19.270684 8.5514502,19.270684 C 8.4788135,19.270684 8.4218497,19.247171 8.3805586,19.200147 C 8.3395687,19.152821 8.3190737,19.087709 8.3190738,19.004813 C 8.3190737,18.921616 8.3395687,18.856506 8.3805586,18.80948 C 8.4218497,18.762457 8.4788135,18.738944 8.5514502,18.738943 M 9.2856511,18.770595 L 9.2856511,18.848367 C 9.2621418,18.835405 9.2384822,18.825759 9.2146724,18.819428 C 9.1911631,18.812797 9.1673528,18.809481 9.1432414,18.80948 C 9.0892913,18.809481 9.0473973,18.826663 9.0175593,18.861027 C 8.9877209,18.895089 8.9728018,18.943019 8.9728019,19.004813 C 8.9728018,19.066609 8.9877209,19.114689 9.0175593,19.149053 C 9.0473973,19.183116 9.0892913,19.200147 9.1432414,19.200147 C 9.1673528,19.200147 9.1911631,19.196982 9.2146724,19.190652 C 9.2384822,19.18402 9.2621418,19.174223 9.2856511,19.161262 L 9.2856511,19.238129 C 9.2624432,19.24898 9.2383315,19.257119 9.2133161,19.262545 C 9.1886013,19.267971 9.1622291,19.270684 9.1341996,19.270684 C 9.0579461,19.270684 8.9973656,19.246719 8.9524577,19.198789 C 8.9075496,19.150862 8.8850956,19.086202 8.8850957,19.004813 C 8.8850956,18.92222 8.9077003,18.85726 8.9529098,18.809933 C 8.9984205,18.762607 9.0606587,18.738944 9.1396247,18.738943 C 9.1652431,18.738944 9.1902589,18.741657 9.2146724,18.747082 C 9.239085,18.752207 9.2627446,18.760045 9.2856511,18.770595 M 9.4280609,18.554009 L 9.5116983,18.554009 L 9.5116983,18.969546 L 9.759898,18.751152 L 9.8661402,18.751152 L 9.5975962,18.988084 L 9.8774425,19.257571 L 9.7689399,19.257571 L 9.5116983,19.010241 L 9.5116983,19.257571 L 9.4280609,19.257571 L 9.4280609,18.554009"
     id="text7831" />
  <path
     style="font-size:1.35413444px;font-style:normal;font-variant:normal;font-weight:normal;font-stretch:normal;text-align:start;line-height:125%;writing-mode:lr-tb;text-anchor:start;fill:#000000;fill-opacity:1;stroke:none;stroke-width:1px;stroke-linecap:butt;stroke-linejoin:miter;stroke-opacity:1;font-family:Bitstream Vera Sans"
     d="M 7.9325335,22.230919 L 7.9325335,22.755877 L 8.0428445,22.755877 C 8.1359755,22.755877 8.204091,22.734777 8.2471911,22.692575 C 8.2905916,22.650374 8.3122921,22.583756 8.3122926,22.49272 C 8.3122921,22.402288 8.2905916,22.336123 8.2471911,22.294221 C 8.204091,22.252021 8.1359755,22.23092 8.0428445,22.230919 L 7.9325335,22.230919 M 7.8412105,22.155861 L 8.0288296,22.155861 C 8.1596351,22.155862 8.2556296,22.183142 8.3168136,22.237702 C 8.3779963,22.291962 8.408588,22.376968 8.4085887,22.49272 C 8.408588,22.609076 8.3778457,22.694535 8.3163615,22.749095 C 8.2548761,22.803655 8.1590323,22.830937 8.0288296,22.830937 L 7.8412105,22.830937 L 7.8412105,22.155861 M 8.7802101,22.57637 C 8.7129986,22.57637 8.6664329,22.584057 8.640513,22.599431 C 8.6145928,22.614803 8.6016328,22.64103 8.6016329,22.678106 C 8.6016328,22.707647 8.6112775,22.731159 8.6305669,22.748642 C 8.6501575,22.765824 8.6766804,22.774416 8.7101356,22.774416 C 8.7562489,22.774416 8.7931699,22.758138 8.8208986,22.725583 C 8.8489281,22.692726 8.862943,22.649168 8.8629434,22.594908 L 8.8629434,22.57637 L 8.7802101,22.57637 M 8.9461287,22.542006 L 8.9461287,22.830937 L 8.8629434,22.830937 L 8.8629434,22.754069 C 8.8439551,22.784816 8.8202955,22.807574 8.7919646,22.822345 C 8.7636331,22.836814 8.7289725,22.844049 8.687983,22.844049 C 8.6361427,22.844049 8.5948514,22.82958 8.5641092,22.800641 C 8.5336681,22.771402 8.5184475,22.732366 8.5184476,22.683532 C 8.5184475,22.626559 8.5374355,22.583605 8.5754115,22.554666 C 8.6136887,22.525728 8.6706525,22.511259 8.7463031,22.511258 L 8.8629434,22.511258 L 8.8629434,22.50312 C 8.862943,22.464837 8.8502843,22.435297 8.8249675,22.414497 C 8.7999513,22.393396 8.7646879,22.382846 8.7191774,22.382845 C 8.6902432,22.382846 8.6620626,22.386312 8.6346358,22.393245 C 8.6072086,22.400179 8.5808365,22.410578 8.5555193,22.424444 L 8.5555193,22.347578 C 8.5859602,22.33582 8.615497,22.32708 8.6441298,22.321351 C 8.6727622,22.315323 8.7006414,22.312308 8.7277672,22.312308 C 8.8010062,22.312308 8.8557095,22.331299 8.8918774,22.369281 C 8.9280445,22.407263 8.9461283,22.464837 8.9461287,22.542006 M 9.2002056,22.180729 L 9.2002056,22.324516 L 9.3715493,22.324516 L 9.3715493,22.389175 L 9.2002056,22.389175 L 9.2002056,22.664088 C 9.2002054,22.705386 9.2057813,22.731913 9.2169331,22.743669 C 9.228386,22.755425 9.2514427,22.761303 9.2861035,22.761303 L 9.3715493,22.761303 L 9.3715493,22.830937 L 9.2861035,22.830937 C 9.2219059,22.830937 9.1776008,22.819029 9.1531878,22.795216 C 9.1287746,22.7711 9.1165681,22.727391 9.1165682,22.664088 L 9.1165682,22.389175 L 9.0555354,22.389175 L 9.0555354,22.324516 L 9.1165682,22.324516 L 9.1165682,22.180729 L 9.2002056,22.180729 M 9.7115241,22.57637 C 9.6443126,22.57637 9.5977469,22.584057 9.571827,22.599431 C 9.5459069,22.614803 9.5329468,22.64103 9.5329469,22.678106 C 9.5329468,22.707647 9.5425915,22.731159 9.561881,22.748642 C 9.5814715,22.765824 9.6079944,22.774416 9.6414495,22.774416 C 9.6875629,22.774416 9.7244839,22.758138 9.7522126,22.725583 C 9.7802421,22.692726 9.794257,22.649168 9.7942574,22.594908 L 9.7942574,22.57637 L 9.7115241,22.57637 M 9.8774427,22.542006 L 9.8774427,22.830937 L 9.7942574,22.830937 L 9.7942574,22.754069 C 9.775269,22.784816 9.7516095,22.807574 9.7232786,22.822345 C 9.694947,22.836814 9.6602865,22.844049 9.6192969,22.844049 C 9.5674566,22.844049 9.5261654,22.82958 9.4954231,22.800641 C 9.464982,22.771402 9.4497615,22.732366 9.4497616,22.683532 C 9.4497615,22.626559 9.4687495,22.583605 9.5067255,22.554666 C 9.5450027,22.525728 9.6019665,22.511259 9.6776171,22.511258 L 9.7942574,22.511258 L 9.7942574,22.50312 C 9.794257,22.464837 9.7815984,22.435297 9.7562815,22.414497 C 9.7312652,22.393396 9.6960019,22.382846 9.6504914,22.382845 C 9.6215572,22.382846 9.5933766,22.386312 9.5659498,22.393245 C 9.5385226,22.400179 9.5121505,22.410578 9.4868333,22.424444 L 9.4868333,22.347578 C 9.5172742,22.33582 9.546811,22.32708 9.5754438,22.321351 C 9.6040762,22.315323 9.6319553,22.312308 9.6590812,22.312308 C 9.7323201,22.312308 9.7870235,22.331299 9.8231914,22.369281 C 9.8593585,22.407263 9.8774422,22.464837 9.8774427,22.542006"
     id="text7835" />
  <path
     style="font-size:1.35413444px;font-style:normal;font-variant:normal;font-weight:normal;font-stretch:normal;text-align:start;line-height:125%;writing-mode:lr-tb;text-anchor:start;fill:#000000;fill-opacity:1;stroke:none;stroke-width:1px;stroke-linecap:butt;stroke-linejoin:miter;stroke-opacity:1;font-family:Bitstream Vera Sans"
     d="M 8.5794801,25.840004 L 8.4556063,26.175959 L 8.703806,26.175959 L 8.5794801,25.840004 M 8.5279414,25.750025 L 8.6314709,25.750025 L 8.8887125,26.425099 L 8.7937728,26.425099 L 8.732288,26.251923 L 8.4280286,26.251923 L 8.3665437,26.425099 L 8.2702477,26.425099 L 8.5279414,25.750025 M 8.986817,25.750025 L 9.1228973,25.750025 L 9.2951452,26.20942 L 9.4682973,25.750025 L 9.6043776,25.750025 L 9.6043776,26.425099 L 9.5153151,26.425099 L 9.5153151,25.832318 L 9.3412588,26.295329 L 9.2494837,26.295329 L 9.0754274,25.832318 L 9.0754274,26.425099 L 8.986817,26.425099 L 8.986817,25.750025 M 9.7861195,25.750025 L 9.8774425,25.750025 L 9.8774425,26.425099 L 9.7861195,26.425099 L 9.7861195,25.750025"
     id="text7839" />
</svg>
