<?xml version="1.0" encoding="UTF-8" standalone="no"?>
<!-- Generator: Adobe Illustrator 10.0, SVG Export Plug-In . SVG Version: 3.0.0 Build 77)  -->
<svg
   xmlns:dc="http://purl.org/dc/elements/1.1/"
   xmlns:cc="http://web.resource.org/cc/"
   xmlns:rdf="http://www.w3.org/1999/02/22-rdf-syntax-ns#"
   xmlns:svg="http://www.w3.org/2000/svg"
   xmlns="http://www.w3.org/2000/svg"
   xmlns:sodipodi="http://inkscape.sourceforge.net/DTD/sodipodi-0.dtd"
   xmlns:inkscape="http://www.inkscape.org/namespaces/inkscape"
   width="518.4"
   height="208.8"
   viewBox="0 0 518.4 208.8"
   style="overflow:visible;enable-background:new 0 0 518.4 208.8"
   xml:space="preserve"
   id="svg1452"
   sodipodi:version="0.32"
   inkscape:version="0.43"
   sodipodi:docname="Biphase_Mark_Code.svg"
   sodipodi:docbase="C:\Documents and Settings\alessio\Desktop"><metadata
   id="metadata1596"><rdf:RDF><cc:Work
       rdf:about=""><dc:format>image/svg+xml</dc:format><dc:type
         rdf:resource="http://purl.org/dc/dcmitype/StillImage" /></cc:Work></rdf:RDF></metadata><defs
   id="defs1594">
		
		
		
		
		
		
		
		
		
		
		
		
		
		
		
		
		
		
		
		
		
		
		
		
		
		
		
		
		
		
		
		
		
		
		
		
		
	</defs><sodipodi:namedview
   inkscape:window-height="712"
   inkscape:window-width="1024"
   inkscape:pageshadow="2"
   inkscape:pageopacity="0.0"
   borderopacity="1.0"
   bordercolor="#666666"
   pagecolor="#ffffff"
   id="base"
   inkscape:zoom="2.0787629"
   inkscape:cx="311.69228"
   inkscape:cy="104.4"
   inkscape:window-x="-4"
   inkscape:window-y="-4"
   inkscape:current-layer="svg1452" />
	<path
   id="path1455"
   d="M 0,208.8 L 518.4,208.8 L 518.4,0 L 0,0 L 0,208.8 z "
   style="fill:#ffffff" /><path
   id="path1457"
   d="M 165.599,108 L 496.8,108"
   style="fill:none;stroke:#c0c0c0;stroke-width:0.99999999;stroke-miterlimit:4;stroke-dasharray:1,2;stroke-dashoffset:0" /><path
   id="path1459"
   d="M 165.598,50.399 L 496.799,50.399"
   style="fill:none;stroke:#c0c0c0;stroke-width:0.99999999;stroke-miterlimit:4;stroke-dasharray:1,2;stroke-dashoffset:0" /><path
   id="path1461"
   d="M 165.598,172.801 L 496.799,172.801"
   style="fill:none;stroke:#c0c0c0;stroke-width:0.99999999;stroke-miterlimit:4;stroke-dasharray:1,2;stroke-dashoffset:0" /><path
   id="path1463"
   d="M 180,21.6 L 179.999,187.2"
   style="fill:none;stroke:#c0c0c0;stroke-width:0.99999999;stroke-miterlimit:4;stroke-dasharray:1,2;stroke-dashoffset:0" /><path
   id="path1465"
   d="M 208.8,21.6 L 208.799,187.2"
   style="fill:none;stroke:#c0c0c0;stroke-width:0.99999999;stroke-miterlimit:4;stroke-dasharray:1,2;stroke-dashoffset:0" /><path
   id="path1467"
   d="M 237.598,21.6 L 237.597,187.2"
   style="fill:none;stroke:#c0c0c0;stroke-width:0.99999999;stroke-miterlimit:4;stroke-dasharray:1,2;stroke-dashoffset:0" /><path
   id="path1469"
   d="M 266.399,21.6 L 266.397,187.2"
   style="fill:none;stroke:#c0c0c0;stroke-width:0.99999999;stroke-miterlimit:4;stroke-dasharray:1,2;stroke-dashoffset:0" /><path
   id="path1471"
   d="M 295.199,21.6 L 295.198,187.2"
   style="fill:none;stroke:#c0c0c0;stroke-width:0.99999999;stroke-miterlimit:4;stroke-dasharray:1,2;stroke-dashoffset:0" /><path
   id="path1473"
   d="M 324,21.6 L 323.999,187.2"
   style="fill:none;stroke:#c0c0c0;stroke-width:0.99999999;stroke-miterlimit:4;stroke-dasharray:1,2;stroke-dashoffset:0" /><path
   id="path1475"
   d="M 352.799,21.6 L 352.799,187.2"
   style="fill:none;stroke:#c0c0c0;stroke-width:0.99999999;stroke-miterlimit:4;stroke-dasharray:1,2;stroke-dashoffset:0" /><path
   id="path1477"
   d="M 381.6,21.6 L 381.6,187.2"
   style="fill:none;stroke:#c0c0c0;stroke-width:0.99999999;stroke-miterlimit:4;stroke-dasharray:1,2;stroke-dashoffset:0" /><path
   id="path1479"
   d="M 410.4,21.6 L 410.4,187.2"
   style="fill:none;stroke:#c0c0c0;stroke-width:0.99999999;stroke-miterlimit:4;stroke-dasharray:1,2;stroke-dashoffset:0" /><path
   id="path1481"
   d="M 439.201,21.6 L 439.199,187.2"
   style="fill:none;stroke:#c0c0c0;stroke-width:0.99999999;stroke-miterlimit:4;stroke-dasharray:1,2;stroke-dashoffset:0" /><path
   id="path1483"
   d="M 468.002,21.6 L 468,187.2"
   style="fill:none;stroke:#c0c0c0;stroke-width:0.99999999;stroke-miterlimit:4;stroke-dasharray:1,2;stroke-dashoffset:0" /><path
   id="path1485"
   d="M 496.799,21.6 L 496.799,187.2"
   style="fill:none;stroke:#c0c0c0;stroke-width:0.5" /><path
   id="path1487"
   style="fill:none;stroke:#000000"
   d="" /><path
   id="path1489"
   style="fill:none;stroke:#000000"
   d="" /><path
   id="path1491"
   style="fill:none;stroke:#000000"
   d="" /><path
   id="path1493"
   style="fill:none;stroke:#000000"
   d="" /><path
   id="path1495"
   d="M 165.599,50.399 L 180,50.399 L 180,21.6 L 194.4,21.6 L 194.399,50.4 L 208.799,50.4 L 208.799,21.6 L 223.199,21.6 L 223.198,50.4 L 237.598,50.4 L 237.598,21.6 L 251.998,21.6 L 251.998,50.4 L 266.398,50.4 L 266.398,21.6 L 280.798,21.6 L 280.796,50.4 L 295.196,50.4 L 295.196,21.6 L 309.6,21.6 L 309.6,50.4 L 323.998,50.4 L 323.998,21.6 L 338.398,21.6 L 338.398,50.4 L 352.798,50.4 L 352.798,21.6 L 367.198,21.6 L 367.198,50.4 L 381.596,50.4 L 381.596,21.6 L 395.996,21.6 L 395.996,50.4 L 410.396,50.4 L 410.396,21.6 L 424.796,21.6 L 424.796,50.4 L 439.196,50.4 L 439.196,21.6 L 453.594,21.6 L 453.594,50.4 L 467.994,50.4 L 467.994,21.6 L 482.394,21.6 L 482.394,50.4 L 496.794,50.4"
   style="fill:none;stroke:#ff0000;stroke-width:1.5" /><path
   id="path1497"
   d="M 496.799,108 L 467.998,108 L 467.998,79.2 L 439.199,79.2 L 439.199,108 L 381.597,108 L 381.597,79.2 L 352.798,79.2 L 352.798,108 L 323.997,108 L 323.997,79.2 L 266.398,79.2 L 266.398,108 L 208.798,108 L 208.798,79.2 L 179.997,79.2 L 179.997,108 L 165.598,108"
   style="fill:none;stroke:#ff0000;stroke-width:1.5" /><path
   id="path1499"
   d="M 165.599,172.802 L 179.998,172.802 L 179.998,158.4 L 194.398,158.4 L 194.398,187.2 L 208.798,187.2 L 208.798,158.399 L 237.598,158.399 L 237.598,187.2 L 266.398,187.2 L 266.398,158.399 L 280.798,158.399 L 280.798,187.2 L 295.196,187.2 L 295.196,158.399 L 309.6,158.399 L 309.6,187.2 L 323.998,187.2 L 323.998,158.399 L 352.799,158.399 L 352.799,187.2 L 367.199,187.2 L 367.199,158.399 L 381.597,158.399 L 381.597,187.2 L 410.398,187.2 L 410.398,158.399 L 439.199,158.399 L 439.199,187.2 L 453.597,187.2 L 453.597,158.399 L 467.997,158.399 L 467.997,187.2 L 496.798,187.2"
   style="fill:none;stroke:#ff0000;stroke-width:1.5" /><g
   id="g1501">
			<path
   id="path1503"
   d="M 306.234,135.144 L 309.297,135.144 L 309.297,123.988 L 305.984,124.738 L 305.984,122.925 L 309.282,122.206 L 311.265,122.206 L 311.265,135.144 L 314.296,135.144 L 314.296,136.8 L 306.233,136.8 L 306.233,135.144 L 306.234,135.144 z " />
		</g><g
   id="g1505">
			<path
   id="path1507"
   d="M 277.434,135.144 L 280.497,135.144 L 280.497,123.988 L 277.184,124.738 L 277.184,122.925 L 280.482,122.206 L 282.465,122.206 L 282.465,135.144 L 285.496,135.144 L 285.496,136.8 L 277.433,136.8 L 277.433,135.144 L 277.434,135.144 z " />
		</g><g
   id="g1509">
			<path
   id="path1511"
   d="M 191.034,135.144 L 194.097,135.144 L 194.097,123.988 L 190.784,124.738 L 190.784,122.925 L 194.082,122.206 L 196.065,122.206 L 196.065,135.144 L 199.096,135.144 L 199.096,136.8 L 191.033,136.8 L 191.033,135.144 L 191.034,135.144 z " />
		</g><g
   id="g1513">
			<path
   id="path1515"
   d="M 223.204,121.956 C 224.759,121.956 225.935,122.595 226.732,123.87 C 227.529,125.145 227.928,127.03 227.928,129.523 C 227.928,132.01 227.529,133.891 226.732,135.167 C 225.935,136.443 224.759,137.081 223.204,137.081 C 221.649,137.081 220.475,136.443 219.681,135.167 C 218.887,133.892 218.491,132.011 218.491,129.523 C 218.491,127.03 218.887,125.145 219.681,123.87 C 220.475,122.595 221.649,121.956 223.204,121.956 z M 223.204,123.519 C 222.282,123.519 221.594,124.014 221.14,125.003 C 220.686,125.992 220.459,127.499 220.459,129.524 C 220.459,131.543 220.686,133.046 221.14,134.035 C 221.594,135.025 222.282,135.519 223.204,135.519 C 224.132,135.519 224.823,135.025 225.277,134.035 C 225.731,133.047 225.959,131.543 225.959,129.524 C 225.959,127.5 225.731,125.993 225.277,125.003 C 224.823,124.013 224.132,123.519 223.204,123.519 z M 221.896,129.461 C 221.896,129.104 222.021,128.794 222.27,128.534 C 222.519,128.274 222.819,128.143 223.168,128.143 C 223.53,128.143 223.841,128.274 224.101,128.534 C 224.36,128.794 224.49,129.103 224.49,129.461 C 224.49,129.825 224.362,130.134 224.106,130.388 C 223.85,130.642 223.538,130.769 223.168,130.769 C 222.805,130.769 222.502,130.646 222.26,130.398 C 222.018,130.151 221.896,129.839 221.896,129.461 z " />
		</g><g
   id="g1517">
			<path
   id="path1519"
   d="M 252.005,121.956 C 253.56,121.956 254.735,122.595 255.532,123.87 C 256.329,125.145 256.728,127.03 256.728,129.523 C 256.728,132.01 256.329,133.891 255.532,135.167 C 254.735,136.443 253.559,137.081 252.005,137.081 C 250.451,137.081 249.276,136.443 248.482,135.167 C 247.688,133.892 247.292,132.011 247.292,129.523 C 247.292,127.03 247.688,125.145 248.482,123.87 C 249.276,122.595 250.45,121.956 252.005,121.956 z M 252.005,123.519 C 251.083,123.519 250.396,124.014 249.941,125.003 C 249.488,125.992 249.26,127.499 249.26,129.524 C 249.26,131.543 249.488,133.046 249.941,134.035 C 250.396,135.025 251.084,135.519 252.005,135.519 C 252.933,135.519 253.624,135.025 254.078,134.035 C 254.532,133.047 254.76,131.543 254.76,129.524 C 254.76,127.5 254.532,125.993 254.078,125.003 C 253.624,124.013 252.933,123.519 252.005,123.519 z M 250.697,129.461 C 250.697,129.104 250.821,128.794 251.071,128.534 C 251.32,128.274 251.62,128.143 251.969,128.143 C 252.331,128.143 252.643,128.274 252.902,128.534 C 253.161,128.794 253.291,129.103 253.291,129.461 C 253.291,129.825 253.163,130.134 252.907,130.388 C 252.651,130.642 252.339,130.769 251.969,130.769 C 251.606,130.769 251.303,130.646 251.061,130.398 C 250.818,130.151 250.697,129.839 250.697,129.461 z " />
		</g><g
   id="g1521">
			<path
   id="path1523"
   d="M 338.404,121.956 C 339.959,121.956 341.135,122.595 341.932,123.87 C 342.729,125.145 343.127,127.03 343.127,129.523 C 343.127,132.01 342.729,133.891 341.932,135.167 C 341.135,136.443 339.958,137.081 338.404,137.081 C 336.848,137.081 335.675,136.443 334.881,135.167 C 334.087,133.892 333.691,132.011 333.691,129.523 C 333.691,127.03 334.087,125.145 334.881,123.87 C 335.675,122.595 336.849,121.956 338.404,121.956 z M 338.404,123.519 C 337.482,123.519 336.794,124.014 336.341,125.003 C 335.886,125.992 335.659,127.499 335.659,129.524 C 335.659,131.543 335.886,133.046 336.341,134.035 C 336.794,135.025 337.483,135.519 338.404,135.519 C 339.332,135.519 340.023,135.025 340.477,134.035 C 340.931,133.047 341.159,131.543 341.159,129.524 C 341.159,127.5 340.931,125.993 340.477,125.003 C 340.023,124.013 339.332,123.519 338.404,123.519 z M 337.097,129.461 C 337.097,129.104 337.222,128.794 337.471,128.534 C 337.72,128.274 338.02,128.143 338.369,128.143 C 338.731,128.143 339.042,128.274 339.302,128.534 C 339.561,128.794 339.691,129.103 339.691,129.461 C 339.691,129.825 339.563,130.134 339.307,130.388 C 339.051,130.642 338.739,130.769 338.369,130.769 C 338.007,130.769 337.704,130.646 337.461,130.398 C 337.218,130.151 337.097,129.839 337.097,129.461 z " />
		</g><g
   id="g1525">
			<path
   id="path1527"
   d="M 396.004,121.956 C 397.559,121.956 398.735,122.595 399.532,123.87 C 400.329,125.145 400.727,127.03 400.727,129.523 C 400.727,132.01 400.329,133.891 399.532,135.167 C 398.735,136.443 397.558,137.081 396.004,137.081 C 394.448,137.081 393.275,136.443 392.481,135.167 C 391.687,133.892 391.291,132.011 391.291,129.523 C 391.291,127.03 391.687,125.145 392.481,123.87 C 393.275,122.595 394.448,121.956 396.004,121.956 z M 396.004,123.519 C 395.082,123.519 394.394,124.014 393.941,125.003 C 393.486,125.992 393.259,127.499 393.259,129.524 C 393.259,131.543 393.486,133.046 393.941,134.035 C 394.394,135.025 395.083,135.519 396.004,135.519 C 396.932,135.519 397.623,135.025 398.077,134.035 C 398.531,133.047 398.759,131.543 398.759,129.524 C 398.759,127.5 398.531,125.993 398.077,125.003 C 397.623,124.013 396.932,123.519 396.004,123.519 z M 394.696,129.461 C 394.696,129.104 394.821,128.794 395.07,128.534 C 395.319,128.274 395.619,128.143 395.968,128.143 C 396.33,128.143 396.641,128.274 396.901,128.534 C 397.16,128.794 397.29,129.103 397.29,129.461 C 397.29,129.825 397.162,130.134 396.906,130.388 C 396.65,130.642 396.338,130.769 395.968,130.769 C 395.606,130.769 395.303,130.646 395.06,130.398 C 394.817,130.151 394.696,129.839 394.696,129.461 z " />
		</g><g
   id="g1529">
			<path
   id="path1531"
   d="M 424.805,121.956 C 426.36,121.956 427.536,122.595 428.333,123.87 C 429.13,125.145 429.528,127.03 429.528,129.523 C 429.528,132.01 429.13,133.891 428.333,135.167 C 427.536,136.443 426.359,137.081 424.805,137.081 C 423.249,137.081 422.076,136.443 421.282,135.167 C 420.488,133.892 420.092,132.011 420.092,129.523 C 420.092,127.03 420.488,125.145 421.282,123.87 C 422.076,122.595 423.249,121.956 424.805,121.956 z M 424.805,123.519 C 423.883,123.519 423.195,124.014 422.742,125.003 C 422.287,125.992 422.06,127.499 422.06,129.524 C 422.06,131.543 422.287,133.046 422.742,134.035 C 423.195,135.025 423.884,135.519 424.805,135.519 C 425.733,135.519 426.424,135.025 426.878,134.035 C 427.332,133.047 427.56,131.543 427.56,129.524 C 427.56,127.5 427.332,125.993 426.878,125.003 C 426.424,124.013 425.732,123.519 424.805,123.519 z M 423.497,129.461 C 423.497,129.104 423.622,128.794 423.871,128.534 C 424.12,128.274 424.42,128.143 424.769,128.143 C 425.131,128.143 425.442,128.274 425.702,128.534 C 425.961,128.794 426.091,129.103 426.091,129.461 C 426.091,129.825 425.963,130.134 425.707,130.388 C 425.451,130.642 425.139,130.769 424.769,130.769 C 424.407,130.769 424.104,130.646 423.861,130.398 C 423.618,130.151 423.497,129.839 423.497,129.461 z " />
		</g><g
   id="g1533">
			<path
   id="path1535"
   d="M 482.404,121.956 C 483.959,121.956 485.135,122.595 485.932,123.87 C 486.729,125.145 487.127,127.03 487.127,129.523 C 487.127,132.01 486.729,133.891 485.932,135.167 C 485.135,136.443 483.958,137.081 482.404,137.081 C 480.848,137.081 479.675,136.443 478.881,135.167 C 478.087,133.892 477.691,132.011 477.691,129.523 C 477.691,127.03 478.087,125.145 478.881,123.87 C 479.675,122.595 480.849,121.956 482.404,121.956 z M 482.404,123.519 C 481.482,123.519 480.794,124.014 480.341,125.003 C 479.886,125.992 479.659,127.499 479.659,129.524 C 479.659,131.543 479.886,133.046 480.341,134.035 C 480.794,135.025 481.483,135.519 482.404,135.519 C 483.332,135.519 484.023,135.025 484.477,134.035 C 484.931,133.047 485.159,131.543 485.159,129.524 C 485.159,127.5 484.931,125.993 484.477,125.003 C 484.023,124.013 483.332,123.519 482.404,123.519 z M 481.097,129.461 C 481.097,129.104 481.222,128.794 481.471,128.534 C 481.72,128.274 482.02,128.143 482.369,128.143 C 482.731,128.143 483.042,128.274 483.302,128.534 C 483.561,128.794 483.691,129.103 483.691,129.461 C 483.691,129.825 483.563,130.134 483.307,130.388 C 483.051,130.642 482.739,130.769 482.369,130.769 C 482.007,130.769 481.704,130.646 481.461,130.398 C 481.218,130.151 481.097,129.839 481.097,129.461 z " />
		</g><g
   id="g1537">
			<path
   id="path1539"
   d="M 363.834,135.144 L 366.897,135.144 L 366.897,123.988 L 363.584,124.738 L 363.584,122.925 L 366.882,122.206 L 368.865,122.206 L 368.865,135.144 L 371.896,135.144 L 371.896,136.8 L 363.833,136.8 L 363.833,135.144 L 363.834,135.144 z " />
		</g><g
   id="g1541">
			<path
   id="path1543"
   d="M 450.234,135.144 L 453.297,135.144 L 453.297,123.988 L 449.984,124.738 L 449.984,122.925 L 453.282,122.206 L 455.265,122.206 L 455.265,135.144 L 458.296,135.144 L 458.296,136.8 L 450.233,136.8 L 450.233,135.144 L 450.234,135.144 z " />
		</g><g
   id="g1545">
			<path
   id="path1547"
   d="M 113.208,29.025 L 112.555,30.695 C 111.931,30.228 110.95,29.994 109.611,29.994 C 108.357,29.994 107.351,30.536 106.594,31.62 C 105.837,32.704 105.458,34.101 105.458,35.812 C 105.458,37.445 105.847,38.769 106.624,39.784 C 107.401,40.8 108.405,41.307 109.635,41.307 C 110.975,41.307 112.006,40.83 112.729,39.875 L 113.802,41.369 C 112.668,42.494 111.209,43.057 109.425,43.057 C 107.555,43.057 106.083,42.383 105.008,41.033 C 103.933,39.684 103.396,37.905 103.396,35.695 C 103.396,33.557 103.969,31.781 105.114,30.366 C 106.26,28.952 107.74,28.244 109.556,28.244 C 111.112,28.244 112.329,28.504 113.208,29.025 z " />
			<path
   id="path1549"
   d="M 116.046,39.84 L 116.046,28.056 L 117.89,28.056 L 117.89,39.531 C 117.89,40.091 118.051,40.532 118.374,40.854 C 118.696,41.176 119.119,41.337 119.64,41.337 L 119.64,42.993 C 117.244,42.994 116.046,41.943 116.046,39.84 z " />
			<path
   id="path1551"
   d="M 121.101,37.547 C 121.101,35.934 121.536,34.63 122.405,33.638 C 123.274,32.646 124.42,32.149 125.84,32.149 C 127.338,32.149 128.501,32.626 129.328,33.579 C 130.155,34.532 130.569,35.855 130.569,37.546 C 130.569,39.232 130.145,40.561 129.298,41.533 C 128.451,42.505 127.298,42.992 125.839,42.992 C 124.347,42.992 123.184,42.501 122.35,41.518 C 121.516,40.535 121.101,39.213 121.101,37.547 z M 123.069,37.547 C 123.069,40.178 123.992,41.493 125.84,41.493 C 126.702,41.493 127.378,41.14 127.867,40.435 C 128.356,39.73 128.601,38.767 128.601,37.546 C 128.601,34.948 127.681,33.649 125.84,33.649 C 124.997,33.649 124.325,33.995 123.823,34.687 C 123.32,35.38 123.069,36.333 123.069,37.547 z " />
			<path
   id="path1553"
   d="M 140.489,33.181 L 139.562,34.494 C 139.371,34.307 139.034,34.131 138.551,33.964 C 138.068,33.797 137.593,33.713 137.126,33.713 C 136.106,33.713 135.298,34.066 134.699,34.772 C 134.1,35.478 133.802,36.445 133.802,37.675 C 133.802,38.898 134.105,39.83 134.711,40.471 C 135.317,41.112 136.158,41.432 137.233,41.432 C 138.067,41.432 138.908,41.109 139.755,40.463 L 140.488,42.026 C 139.489,42.672 138.252,42.995 136.777,42.995 C 135.347,42.995 134.166,42.517 133.233,41.56 C 132.3,40.603 131.833,39.309 131.833,37.675 C 131.833,36.009 132.321,34.673 133.297,33.664 C 134.273,32.655 135.609,32.151 137.305,32.151 C 137.85,32.151 138.442,32.264 139.079,32.488 C 139.717,32.712 140.187,32.944 140.489,33.181 z " />
			<path
   id="path1555"
   d="M 149.173,42.806 L 145.884,37.567 L 144.267,39.238 L 144.267,42.806 L 142.423,42.806 L 142.423,28.056 L 144.267,28.056 L 144.267,37.207 L 148.267,32.337 L 150.423,32.337 L 147.082,36.316 L 151.173,42.806 L 149.173,42.806 z " />
		</g><g
   id="g1557">
			<path
   id="path1559"
   d="M 114.34,100.406 L 111.456,100.406 L 111.456,86.098 C 113.294,86.033 114.471,86 114.985,86 C 116.986,86 118.57,86.607 119.737,87.822 C 120.904,89.036 121.487,90.653 121.487,92.671 C 121.487,97.828 119.105,100.406 114.34,100.406 z M 113.425,87.848 L 113.425,98.559 C 113.86,98.624 114.399,98.657 115.042,98.657 C 116.405,98.657 117.477,98.144 118.256,97.116 C 119.035,96.089 119.425,94.663 119.425,92.837 C 119.425,89.446 117.908,87.751 114.876,87.751 C 114.694,87.75 114.21,87.783 113.425,87.848 z " />
			<path
   id="path1561"
   d="M 129.49,99.188 C 128.746,100.126 127.608,100.594 126.076,100.594 C 125.254,100.594 124.542,100.296 123.939,99.7 C 123.335,99.104 123.034,98.363 123.034,97.477 C 123.034,96.415 123.498,95.519 124.428,94.786 C 125.358,94.053 126.543,93.687 127.985,93.687 C 128.376,93.687 128.819,93.77 129.316,93.937 C 129.316,92.249 128.561,91.406 127.052,91.406 C 125.894,91.406 125.003,91.719 124.378,92.344 L 123.597,90.781 C 123.948,90.499 124.433,90.256 125.054,90.053 C 125.674,89.851 126.267,89.749 126.832,89.749 C 128.346,89.749 129.445,90.094 130.131,90.784 C 130.817,91.474 131.159,92.57 131.159,94.073 L 131.159,97.821 C 131.159,98.739 131.43,99.35 131.972,99.656 L 131.972,100.594 C 131.222,100.594 130.661,100.485 130.29,100.267 C 129.918,100.049 129.651,99.689 129.49,99.188 z M 129.315,95.25 C 128.726,95.125 128.314,95.062 128.078,95.062 C 127.135,95.062 126.366,95.303 125.77,95.785 C 125.174,96.267 124.877,96.837 124.877,97.494 C 124.877,98.581 125.522,99.125 126.811,99.125 C 127.753,99.125 128.588,98.677 129.314,97.781 L 129.314,95.25 L 129.315,95.25 z " />
			<path
   id="path1563"
   d="M 134.729,91.406 L 133.51,91.406 L 133.51,89.937 L 134.729,89.937 L 134.729,87.745 L 136.573,87.031 L 136.573,89.937 L 139.448,89.937 L 139.448,91.406 L 136.573,91.406 L 136.573,96.6 C 136.573,97.479 136.721,98.104 137.017,98.475 C 137.313,98.846 137.79,99.031 138.449,99.031 C 138.925,99.031 139.416,98.906 139.925,98.656 L 140.198,100.299 C 139.431,100.495 138.589,100.594 137.673,100.594 C 136.848,100.594 136.151,100.287 135.582,99.672 C 135.013,99.057 134.729,98.28 134.729,97.343 L 134.729,91.406 L 134.729,91.406 z " />
			<path
   id="path1565"
   d="M 147.928,99.188 C 147.184,100.126 146.046,100.594 144.514,100.594 C 143.692,100.594 142.98,100.296 142.377,99.7 C 141.773,99.104 141.472,98.363 141.472,97.477 C 141.472,96.415 141.936,95.519 142.866,94.786 C 143.796,94.053 144.981,93.687 146.423,93.687 C 146.814,93.687 147.257,93.77 147.754,93.937 C 147.754,92.249 146.999,91.406 145.49,91.406 C 144.332,91.406 143.441,91.719 142.816,92.344 L 142.035,90.781 C 142.386,90.499 142.871,90.256 143.492,90.053 C 144.112,89.851 144.705,89.749 145.27,89.749 C 146.784,89.749 147.883,90.094 148.569,90.784 C 149.255,91.474 149.597,92.57 149.597,94.073 L 149.597,97.821 C 149.597,98.739 149.868,99.35 150.41,99.656 L 150.41,100.594 C 149.66,100.594 149.099,100.485 148.728,100.267 C 148.355,100.049 148.089,99.689 147.928,99.188 z M 147.753,95.25 C 147.164,95.125 146.752,95.062 146.516,95.062 C 145.573,95.062 144.804,95.303 144.208,95.785 C 143.612,96.267 143.315,96.837 143.315,97.494 C 143.315,98.581 143.96,99.125 145.249,99.125 C 146.191,99.125 147.026,98.677 147.752,97.781 L 147.752,95.25 L 147.753,95.25 z " />
		</g><g
   id="g1567">
			<path
   id="path1569"
   d="M 20.983,167.044 L 20.983,171.044 L 25.577,171.044 L 25.577,172.7 L 20.983,172.7 L 20.983,177.856 L 27.452,177.856 L 27.452,179.606 L 19.014,179.606 L 19.014,165.293 L 27.452,165.293 L 27.452,167.043 L 20.983,167.043 L 20.983,167.044 z " />
			<path
   id="path1571"
   d="M 36.009,179.606 L 36.009,173.52 C 36.009,172.407 35.841,171.627 35.505,171.182 C 35.169,170.735 34.606,170.512 33.816,170.512 C 33.391,170.512 32.947,170.639 32.483,170.893 C 32.019,171.147 31.664,171.459 31.416,171.831 L 31.416,179.606 L 29.572,179.606 L 29.572,169.137 L 30.84,169.137 L 31.425,170.485 C 32.036,169.462 33.034,168.95 34.419,168.95 C 36.708,168.95 37.853,170.344 37.853,173.131 L 37.853,179.607 L 36.009,179.607 L 36.009,179.606 z " />
			<path
   id="path1573"
   d="M 48.468,169.981 L 47.541,171.294 C 47.35,171.107 47.013,170.931 46.53,170.764 C 46.047,170.597 45.572,170.513 45.105,170.513 C 44.085,170.513 43.277,170.867 42.678,171.572 C 42.079,172.279 41.781,173.246 41.781,174.475 C 41.781,175.699 42.084,176.63 42.69,177.271 C 43.296,177.912 44.137,178.232 45.212,178.232 C 46.046,178.232 46.887,177.91 47.734,177.263 L 48.467,178.826 C 47.468,179.472 46.231,179.795 44.756,179.795 C 43.326,179.795 42.145,179.316 41.212,178.36 C 40.279,177.404 39.812,176.109 39.812,174.475 C 39.812,172.81 40.3,171.472 41.276,170.464 C 42.252,169.454 43.588,168.95 45.284,168.95 C 45.829,168.95 46.421,169.063 47.058,169.288 C 47.695,169.513 48.165,169.744 48.468,169.981 z " />
			<path
   id="path1575"
   d="M 49.714,174.348 C 49.714,172.735 50.149,171.431 51.018,170.439 C 51.887,169.447 53.033,168.951 54.453,168.951 C 55.951,168.951 57.114,169.428 57.941,170.381 C 58.768,171.334 59.182,172.657 59.182,174.349 C 59.182,176.035 58.758,177.364 57.911,178.336 C 57.064,179.308 55.911,179.795 54.452,179.795 C 52.96,179.795 51.797,179.304 50.963,178.321 C 50.129,177.338 49.714,176.014 49.714,174.348 z M 51.683,174.348 C 51.683,176.979 52.606,178.294 54.454,178.294 C 55.316,178.294 55.992,177.941 56.481,177.236 C 56.97,176.531 57.215,175.568 57.215,174.347 C 57.215,171.748 56.295,170.45 54.454,170.45 C 53.611,170.45 52.939,170.796 52.437,171.488 C 51.934,172.181 51.683,173.134 51.683,174.348 z " />
			<path
   id="path1577"
   d="M 67.79,179.606 L 67.79,178.835 C 67.143,179.475 66.201,179.794 64.964,179.794 C 63.65,179.794 62.583,179.325 61.766,178.388 C 60.949,177.451 60.54,176.2 60.54,174.636 C 60.54,173.067 61.011,171.726 61.953,170.616 C 62.895,169.505 64.016,168.95 65.318,168.95 C 66.403,168.95 67.228,169.204 67.79,169.712 L 67.79,164.857 L 69.634,164.857 L 69.634,179.607 L 67.79,179.607 L 67.79,179.606 z M 67.79,171.566 C 67.319,170.864 66.676,170.512 65.86,170.512 C 64.86,170.512 64.052,170.883 63.435,171.625 C 62.818,172.366 62.509,173.31 62.509,174.454 C 62.509,176.972 63.658,178.23 65.958,178.23 C 66.252,178.23 66.604,178.138 67.016,177.953 C 67.427,177.767 67.685,177.57 67.79,177.361 L 67.79,171.566 z " />
			<path
   id="path1579"
   d="M 81.099,174.544 L 73.558,174.544 C 73.558,175.771 73.892,176.712 74.562,177.37 C 75.153,177.944 75.914,178.231 76.844,178.231 C 77.904,178.231 78.787,177.918 79.496,177.293 L 80.276,178.637 C 79.989,178.924 79.549,179.172 78.957,179.381 C 78.214,179.656 77.387,179.793 76.475,179.793 C 75.159,179.793 74.041,179.348 73.123,178.455 C 72.1,177.473 71.589,176.152 71.589,174.493 C 71.589,172.769 72.114,171.387 73.164,170.345 C 74.103,169.414 75.215,168.949 76.5,168.949 C 77.994,168.949 79.165,169.369 80.012,170.207 C 80.834,171.012 81.245,172.08 81.245,173.412 C 81.245,173.823 81.196,174.2 81.099,174.544 z M 76.588,170.513 C 75.758,170.513 75.062,170.779 74.5,171.312 C 73.964,171.818 73.66,172.448 73.588,173.201 L 79.401,173.201 C 79.401,172.455 79.166,171.832 78.695,171.332 C 78.179,170.786 77.477,170.513 76.588,170.513 z " />
			<path
   id="path1581"
   d="M 89.841,179.606 L 89.841,178.835 C 89.194,179.475 88.252,179.794 87.015,179.794 C 85.701,179.794 84.634,179.325 83.817,178.388 C 83,177.451 82.591,176.2 82.591,174.636 C 82.591,173.067 83.062,171.726 84.004,170.616 C 84.946,169.505 86.067,168.95 87.369,168.95 C 88.454,168.95 89.279,169.204 89.841,169.712 L 89.841,164.857 L 91.685,164.857 L 91.685,179.607 L 89.841,179.607 L 89.841,179.606 z M 89.841,171.566 C 89.37,170.864 88.727,170.512 87.911,170.512 C 86.911,170.512 86.103,170.883 85.486,171.625 C 84.869,172.366 84.56,173.31 84.56,174.454 C 84.56,176.972 85.709,178.23 88.009,178.23 C 88.303,178.23 88.655,178.138 89.067,177.953 C 89.478,177.767 89.736,177.57 89.841,177.361 L 89.841,171.566 z " />
			<path
   id="path1583"
   d="M 105.071,165.2 L 105.071,166.013 C 103.779,167.875 103.133,170.594 103.133,174.168 C 103.133,178.413 103.779,181.278 105.071,182.763 L 105.071,183.794 C 103.754,182.876 102.732,181.558 102.005,179.842 C 101.278,178.126 100.915,176.229 100.915,174.151 C 100.915,172.38 101.329,170.589 102.157,168.782 C 102.985,166.975 103.956,165.78 105.071,165.2 z " />
			<path
   id="path1585"
   d="M 111.93,179.606 L 107.852,179.606 L 107.852,165.295 C 109.587,165.211 110.838,165.168 111.604,165.168 C 113.014,165.168 114.105,165.474 114.879,166.084 C 115.652,166.695 116.039,167.57 116.039,168.707 C 116.039,169.373 115.792,169.98 115.299,170.529 C 114.806,171.078 114.26,171.422 113.664,171.558 C 114.796,171.831 115.621,172.283 116.138,172.912 C 116.655,173.542 116.914,174.399 116.914,175.483 C 116.914,176.737 116.454,177.737 115.534,178.484 C 114.614,179.233 113.413,179.606 111.93,179.606 z M 109.821,166.856 L 109.821,170.985 C 110.226,171.024 110.729,171.044 111.328,171.044 C 113.157,171.044 114.071,170.289 114.071,168.778 C 114.071,167.452 113.231,166.788 111.55,166.788 C 110.906,166.788 110.33,166.812 109.821,166.856 z M 109.821,172.499 L 109.821,177.946 C 110.487,178.011 110.997,178.044 111.353,178.044 C 112.568,178.044 113.455,177.815 114.014,177.356 C 114.573,176.899 114.853,176.169 114.853,175.168 C 114.853,174.239 114.586,173.554 114.053,173.111 C 113.52,172.67 112.629,172.449 111.382,172.449 L 109.821,172.499 z " />
			<path
   id="path1587"
   d="M 129.983,179.606 L 128.28,170.418 L 125.139,179.793 L 124.639,179.793 L 121.405,170.418 L 119.733,179.606 L 117.889,179.606 L 120.577,165.293 L 121.452,165.293 L 124.905,175.731 L 128.046,165.293 L 128.921,165.293 L 131.827,179.606 L 129.983,179.606 z " />
			<path
   id="path1589"
   d="M 142.485,165.825 L 141.832,167.495 C 141.208,167.028 140.227,166.794 138.888,166.794 C 137.634,166.794 136.628,167.336 135.871,168.42 C 135.114,169.504 134.735,170.901 134.735,172.612 C 134.735,174.245 135.124,175.568 135.901,176.583 C 136.678,177.599 137.682,178.106 138.912,178.106 C 140.252,178.106 141.283,177.629 142.006,176.674 L 143.079,178.168 C 141.945,179.293 140.486,179.856 138.702,179.856 C 136.832,179.856 135.36,179.182 134.285,177.833 C 133.21,176.483 132.673,174.704 132.673,172.494 C 132.673,170.356 133.246,168.58 134.391,167.165 C 135.537,165.751 137.017,165.044 138.833,165.044 C 140.389,165.044 141.606,165.305 142.485,165.825 z " />
			<path
   id="path1591"
   d="M 145.729,183.794 L 145.729,182.763 C 147.021,181.279 147.667,178.413 147.667,174.168 C 147.667,170.594 147.021,167.875 145.729,166.013 L 145.729,165.2 C 146.844,165.78 147.815,166.973 148.643,168.781 C 149.471,170.589 149.885,172.379 149.885,174.15 C 149.885,176.228 149.521,178.126 148.795,179.841 C 148.068,181.558 147.046,182.876 145.729,183.794 z " />
		</g>
</svg>